<svg xmlns="http://www.w3.org/2000/svg" xmlns:xlink="http://www.w3.org/1999/xlink"><symbol id="icon-arrow-bottom" viewBox="0 0 25 25"><path fill-rule="evenodd" clip-rule="evenodd" d="M12.5 4.25a.75.75 0 01.75.75v13.19l5.47-5.47a.75.75 0 111.06 1.06l-6.75 6.75a.75.75 0 01-1.06 0l-6.75-6.75a.75.75 0 111.06-1.06l5.47 5.47V5a.75.75 0 01.75-.75z" fill="currentColor"/></symbol><symbol id="icon-yellow-arrow" viewBox="0 0 25 25"><path fill-rule="evenodd" clip-rule="evenodd" d="M8.75 4.25H20a.75.75 0 01.75.75v11.25a.75.75 0 01-1.5 0V6.81L5.53 20.53a.75.75 0 01-1.06-1.06L18.19 5.75H8.75a.75.75 0 010-1.5z" fill="#FFD11A"/></symbol> <view id="icon-arrow-bottom-view" viewBox="0 0 25 25"/><view id="icon-yellow-arrow-view" viewBox="0 35 25 25"/> <use xlink:href="#icon-arrow-bottom" x="0" y="0" width="25" height="25"/><use xlink:href="#icon-yellow-arrow" x="0" y="35" width="25" height="25"/></svg>